<svg width="98" height="97" xmlns="http://www.w3.org/2000/svg" xmlns:xlink="http://www.w3.org/1999/xlink" xml:space="preserve" overflow="hidden"><g transform="translate(-462 -164)"><g><g><g><g><path d="M550.6 209C550.104 209 549.657 208.699 549.47 208.24L541.73 190 525.24 183.2 508.77 190 501.2 208.07C500.924 208.697 500.192 208.981 499.565 208.705 498.938 208.429 498.654 207.697 498.93 207.07L506.93 188.07 525.28 180.5 543.6 188.09 551.74 207.27C552.003 207.9 551.708 208.624 551.08 208.89 550.928 208.955 550.765 208.993 550.6 209Z" fill="#000000" fill-rule="nonzero" fill-opacity="1"/><path d="M512 226 522.13 219.46 512 213 512 226Z" fill="#000000" fill-rule="nonzero" fill-opacity="1"/><path d="M515.55 212 525 218 535.11 212 515.55 212Z" fill="#000000" fill-rule="nonzero" fill-opacity="1"/><path d="M538 226 538 213 527.7 219.46 538 226Z" fill="#000000" fill-rule="nonzero" fill-opacity="1"/><path d="M546 228.81 546 208.05 540.13 191.27 525.25 185 510.39 191.3 504 208 504 229.67C505.932 228.713 507.939 227.914 510 227.28L510 211C510 210.32 511.32 210 512 210L538 210C538.68 210 540 210.32 540 211L540 226.76C542.047 227.297 544.052 227.982 546 228.81ZM534 203.69C534 204.413 533.414 205 532.69 205L517.31 205C516.586 205 516 204.413 516 203.69L516 194.06C516.005 193.477 516.477 193.005 517.06 193L532.56 193C533.35 192.995 533.995 193.63 534 194.42 534 194.427 534 194.433 534 194.44Z" fill="#000000" fill-rule="nonzero" fill-opacity="1"/><path d="M518 195 532 195 532 203 518 203Z" fill="#000000" fill-rule="nonzero" fill-opacity="1"/><path d="M468 187 473 187 473 189 468 189Z" fill="#000000" fill-rule="nonzero" fill-opacity="1"/><path d="M474.84 183.34 471.36 179.79 472.78 178.34 476.25 181.89 474.84 183.34Z" fill="#000000" fill-rule="nonzero" fill-opacity="1"/><path d="M487 188.12C487 191.434 484.314 194.12 481 194.12 477.686 194.12 475 191.434 475 188.12 475 184.806 477.686 182.12 481 182.12 484.314 182.12 487 184.806 487 188.12Z" fill="#000000" fill-rule="nonzero" fill-opacity="1"/><path d="M480 175 482 175 482 180 480 180Z" fill="#000000" fill-rule="nonzero" fill-opacity="1"/><path d="M489 187 494 187 494 189 489 189Z" fill="#000000" fill-rule="nonzero" fill-opacity="1"/><path d="M487.16 183.34 490.64 179.79 489.22 178.34 485.75 181.89 487.16 183.34Z" fill="#000000" fill-rule="nonzero" fill-opacity="1"/><path d="M474.84 192.77 471.36 196.33 472.78 197.77 476.25 194.22 474.84 192.77Z" fill="#000000" fill-rule="nonzero" fill-opacity="1"/><path d="M480 196.12 482 196.12 482 201.12 480 201.12Z" fill="#000000" fill-rule="nonzero" fill-opacity="1"/><path d="M487.16 192.77 490.64 196.33 489.22 197.77 485.75 194.22 487.16 192.77Z" fill="#000000" fill-rule="nonzero" fill-opacity="1"/><path d="M526 225C528.169 225.001 530.335 225.125 532.49 225.37L525 221 517.82 225.57C520.53 225.19 523.263 225 526 225Z" fill="#000000" fill-rule="nonzero" fill-opacity="1"/><path d="M475.59 238C491.59 237 499.97 232 500.59 231.71 501.35 231.182 502.138 230.695 502.95 230.25 490.6 217.63 468 219.14 468 219.14L468 238Z" fill="#000000" fill-rule="nonzero" fill-opacity="1"/><path d="M554 237.05 550.46 234.76C544.82 230.5 535.65 228 526 228 516.62 228 507.94 230.29 502.24 234.25 502.14 234.32 493.35 239.92 475.73 241.04L468 241.04 468 250.04 554 250.04Z" fill="#000000" fill-rule="nonzero" fill-opacity="1"/></g></g></g></g></g></svg>