<svg width="96" height="97" xmlns="http://www.w3.org/2000/svg" xmlns:xlink="http://www.w3.org/1999/xlink" xml:space="preserve" overflow="hidden"><g transform="translate(-112 -329)"><g><g><g><g><path d="M184.045 353.494C186.794 353.551 189.503 354.175 192 355.326 191.372 350.131 187.303 346.023 182.115 345.344 183.327 347.894 183.985 350.671 184.045 353.494Z" fill="#000000" fill-rule="nonzero" fill-opacity="1"/><path d="M170.628 368.777C174.952 373.101 181.963 373.101 186.287 368.777L189.987 365.077C191.403 363.657 193.32 362.849 195.326 362.826 196.003 362.816 196.544 362.259 196.534 361.582 196.53 361.26 196.398 360.952 196.168 360.726L195.679 360.238C195.177 359.755 194.632 359.32 194.049 358.938 193.549 358.628 193.041 358.353 192.523 358.094 191.138 357.396 189.672 356.873 188.158 356.537 186.783 356.172 185.37 355.975 183.948 355.949 183.604 359.461 182.332 362.819 180.265 365.679 179.866 366.229 179.097 366.351 178.547 365.952 178.547 365.952 178.546 365.951 178.546 365.951 178.493 365.913 178.444 365.871 178.398 365.825 178.042 365.467 177.941 364.927 178.144 364.465 178.565 363.876 178.951 363.262 179.3 362.628 180.672 360.218 181.452 357.518 181.576 354.748 181.791 351.232 181.013 347.727 179.329 344.633 179.153 344.308 178.969 343.985 178.772 343.669 178.39 343.086 177.955 342.541 177.472 342.039L176.985 341.55C176.51 341.067 175.734 341.061 175.251 341.535 175.021 341.762 174.89 342.069 174.885 342.392 174.862 344.398 174.053 346.315 172.633 347.731L168.933 351.431C164.609 355.755 164.609 362.765 168.933 367.089Z" fill="#000000" fill-rule="nonzero" fill-opacity="1"/><path d="M195.434 381.573C196.718 382.911 197.712 384.5 198.354 386.24 200.531 383.464 200.551 379.565 198.401 376.767 197.763 378.561 196.751 380.199 195.434 381.573Z" fill="#000000" fill-rule="nonzero" fill-opacity="1"/><path d="M181.749 382.462C181.749 386.586 185.091 389.928 189.215 389.929L192.741 389.929C194.093 389.927 195.393 390.455 196.36 391.4 196.689 391.716 197.213 391.706 197.529 391.377 197.678 391.222 197.761 391.015 197.76 390.8L197.76 390.334C197.751 389.863 197.698 389.395 197.602 388.934 197.513 388.549 197.402 388.174 197.277 387.804 196.949 386.811 196.499 385.862 195.937 384.98 195.456 384.153 194.876 383.388 194.212 382.7 192.372 384.211 190.163 385.207 187.812 385.583 187.361 385.655 186.936 385.348 186.863 384.896 186.863 384.896 186.863 384.895 186.863 384.894 186.799 384.509 187.016 384.133 187.38 383.994 187.863 383.912 188.341 383.802 188.811 383.665 190.614 383.17 192.273 382.254 193.653 380.993 195.434 379.42 196.735 377.378 197.409 375.1 197.48 374.861 197.546 374.62 197.603 374.375 197.699 373.914 197.752 373.446 197.761 372.975L197.761 372.51C197.763 372.053 197.394 371.681 196.938 371.679 196.723 371.678 196.516 371.761 196.361 371.91 195.394 372.855 194.094 373.384 192.742 373.382L189.215 373.382C185.091 373.383 181.749 376.725 181.749 380.849Z" fill="#000000" fill-rule="nonzero" fill-opacity="1"/><path d="M136.62 391.48 119.721 402.723 135.277 418.279 146.52 401.38 136.62 391.48Z" fill="#000000" fill-rule="nonzero" fill-opacity="1"/><path d="M149.348 398.551 180.748 392.606C174.796 376.115 161.814 363.128 145.325 357.169L139.449 388.652Z" fill="#000000" fill-rule="nonzero" fill-opacity="1"/><path d="M156.427 342.566C155.089 341.282 153.5 340.288 151.76 339.646 154.537 337.469 158.435 337.45 161.233 339.6 159.439 340.238 157.801 341.249 156.427 342.566Z" fill="#000000" fill-rule="nonzero" fill-opacity="1"/><path d="M155.538 356.251C151.415 356.251 148.072 352.909 148.071 348.785L148.071 345.259C148.073 343.907 147.545 342.607 146.6 341.64 146.284 341.311 146.294 340.787 146.623 340.471 146.778 340.322 146.985 340.239 147.2 340.24L147.666 340.24C148.137 340.249 148.605 340.302 149.066 340.398 149.451 340.487 149.826 340.598 150.196 340.723 151.189 341.051 152.138 341.501 153.02 342.063 153.847 342.544 154.612 343.124 155.3 343.788 153.788 345.628 152.794 347.837 152.417 350.188 152.345 350.639 152.652 351.064 153.104 351.137 153.104 351.137 153.105 351.137 153.106 351.137 153.491 351.201 153.867 350.984 154.006 350.62 154.088 350.137 154.198 349.659 154.335 349.189 154.83 347.386 155.746 345.727 157.007 344.347 158.58 342.566 160.622 341.265 162.9 340.591 163.139 340.52 163.38 340.454 163.625 340.397 164.086 340.301 164.554 340.248 165.025 340.239L165.491 340.239C165.948 340.237 166.32 340.606 166.322 341.062 166.323 341.277 166.24 341.484 166.091 341.639 165.146 342.606 164.617 343.905 164.619 345.258L164.619 348.784C164.618 352.908 161.275 356.25 157.152 356.25Z" fill="#000000" fill-rule="nonzero" fill-opacity="1"/></g></g></g></g></g></svg>