<svg width="98" height="96" xmlns="http://www.w3.org/2000/svg" xmlns:xlink="http://www.w3.org/1999/xlink" xml:space="preserve" overflow="hidden"><g transform="translate(-630 -120)"><g><g><g><g><path d="M714.4 173.8C704.8 176.5 688.9 182.5 683.1 192.9 683 193 683 193.2 682.9 193.3L682.9 172.9C714.5 169.9 697.7 131 697.7 131 696.9 129.7 695 129.7 694.3 131L687.5 142.5 680.7 131C680.3 130.3 679.6 130 679 130 678.4 130 677.7 130.3 677.3 131L670.5 142.5 663.7 131C662.9 129.7 661 129.7 660.3 131 660.3 131 643.5 169.9 675 172.9L675 193.2C675 193.1 674.9 193.1 674.9 193 669.1 182.5 653.3 176.6 643.6 173.9 641.6 173.3 640.2 175.7 641.6 177.2 645.8 181.6 651 188.8 653 198.5 653 198.5 653 198.5 653 198.5 653.7 202.7 657.6 206 662 206L696 206C700.4 206 704.3 202.7 705 198.5 705 198.5 705 198.5 705 198.5 707 188.8 712.2 181.6 716.4 177.2 717.8 175.6 716.4 173.3 714.4 173.8Z" fill="#000000" fill-rule="nonzero" fill-opacity="1"/></g></g></g></g></g></svg>