<svg width="96" height="96" xmlns="http://www.w3.org/2000/svg" xmlns:xlink="http://www.w3.org/1999/xlink" xml:space="preserve" overflow="hidden"><g transform="translate(-592 -312)"><g><path d="M673.8 344.8C672.6 340.8 670 337.4 666.4 335.3 666.4 335 666.4 334.7 666.4 334.4 666.5 327.6 660.9 322 654 322 651.9 322 650 322.5 648.3 323.4 646 320.1 642.3 318 638 318 632.5 318 627.8 321.6 626.1 326.6 624.3 325.6 622.2 325 620 325 613.1 325 607.5 330.6 607.5 337.5 607.5 340.1 608.3 342.5 609.7 344.5 603.2 346.2 598.5 352 598.5 359 598.5 367.3 605.2 374 613.5 374 614.7 374 615.9 373.8 617.1 373.6 621.9 375.8 632.5 382.2 633 389.5L632.6 399C632.6 399.5 632.4 400 632 400.4L631.1 401.3C630.5 402 630.9 403 631.8 403L642.8 403C643.6 403 644 402.2 643.7 401.5 643.7 401.5 643.2 400.5 642.9 400.2 642.6 399.8 642.3 399.4 642.3 398.8L641.9 386.7C641.9 386.6 642 386.5 642 386.5 642.8 382.9 647.6 380.5 652.7 378 657.8 375.5 663.8 372.5 665.7 367.3 666.9 367.7 668.2 368 669.6 368 676.2 368 681.6 362.6 681.6 356 681.5 350.9 678.3 346.5 673.8 344.8ZM637.8 375.3C637.5 372.8 636.9 369.8 635.7 366.9 638.2 366.6 640.5 365.8 642.5 364.6 640.4 368.2 638.8 372.1 637.8 375.3ZM622.7 370.8C624.5 369.4 626 367.5 627.1 365.4 628 365.8 628.9 366.2 629.9 366.4 632.5 370.7 633 375.6 633 378.7 629.8 375.3 625.7 372.6 622.7 370.8ZM650.4 373.5C647.5 374.9 644.5 376.4 642.1 378.2 643.4 374.1 645.7 367.9 649.3 363.4 651.8 365 654.8 365.9 658 365.9 659 365.9 659.9 365.8 660.8 365.6 659.7 368.7 655.8 370.8 650.4 373.5Z" fill="#000000" fill-rule="nonzero" fill-opacity="1"/></g></g></svg>