<svg width="97" height="96" xmlns="http://www.w3.org/2000/svg" xmlns:xlink="http://www.w3.org/1999/xlink" xml:space="preserve" overflow="hidden"><g transform="translate(-300 -456)"><g><g><g><g><path d="M378 490.8C369 481 359.3 487.7 351.9 489.4 351.7 487 351.1 484.8 350.4 482.7 353.5 482.4 358.1 481.4 361.3 478.1 366.5 472.9 366 464.1 366 464.1 366 464.1 357.1 463.6 352 468.8 349.6 471.2 348.4 474.4 347.8 477.2 343.4 469.8 337 465.9 336.6 465.6L333.5 470.7C333.6 470.8 344.4 477.5 345.9 489.3 338.6 487.5 328.8 481 320 490.7 310.3 501.4 318.6 556.2 349.1 541.1 379.5 556.3 387.7 501.5 378 490.8Z" fill="#000000" fill-rule="nonzero" fill-opacity="1"/></g></g></g></g></g></svg>