<svg width="96" height="96" xmlns="http://www.w3.org/2000/svg" xmlns:xlink="http://www.w3.org/1999/xlink" xml:space="preserve" overflow="hidden"><g transform="translate(-592 -312)"><g><path d="M629 372.2C630.7 369.4 629.8 365.7 627 364 624.3 362.4 620.8 363.1 619 365.7 615.3 362.1 609.4 362.1 605.7 365.8 605.2 366.3 604.7 367 604.3 367.6 600.9 367.8 598.1 370.6 598 374L598 376 598 405 682 405 682 376 682 374C681.8 369.4 677.8 365.8 673.2 366 672.4 366 671.6 366.2 670.9 366.4 664.1 361 654.2 362.1 648.8 368.9L648.4 369.6C648.7 369.9 649 370.1 649.3 370.4 654.4 375.5 654.4 383.7 649.3 388.8L645.3 392.8C640.3 397.9 632.1 398 626.9 393 621.8 388 621.7 379.8 626.7 374.6 626.8 374.5 626.8 374.5 626.9 374.4L627.4 373.9 629 372.2Z" fill="#000000" fill-rule="nonzero" fill-opacity="1"/><path d="M637.1 356.7C638.1 357.9 638.8 359.3 639.3 360.8 639.4 361.4 639.5 362.1 639.5 362.7L639.5 370.7C637.3 370.8 635.2 371.7 633.6 373.3L629.6 377.3C626.1 380.8 626.1 386.5 629.6 390 633.1 393.5 638.8 393.5 642.3 390L646.3 386C649.8 382.5 649.8 376.8 646.3 373.3 646.2 373.2 646.2 373.2 646.1 373.1L639.1 380.1 643.7 370.2 643.6 362.6C643.7 360.8 644.1 359.1 644.8 357.5 645.7 355.1 647.4 353.1 649.6 351.8 653.8 351.9 661.3 351.2 666 346.5 672.8 339.7 671.1 327.1 671.1 327.1 671.1 327.1 658.4 325.4 651.7 332.2 646.8 337.1 646.3 344.9 646.4 349 644.1 350.7 642.4 352.9 641.2 355.4 640.9 355 640.6 354.6 640.3 354.2 640.4 350.8 639.9 344.4 636 340.4 630.4 334.8 620 336.2 620 336.2 620 336.2 618.6 346.6 624.2 352.2 628 355.9 633.6 356.6 637.1 356.7Z" fill="#000000" fill-rule="nonzero" fill-opacity="1"/></g></g></svg>