<svg width="96" height="96" xmlns="http://www.w3.org/2000/svg" xmlns:xlink="http://www.w3.org/1999/xlink" xml:space="preserve" overflow="hidden"><g transform="translate(-592 -312)"><g><path d="M662.694 352.282 653.662 353.282 651.841 344.254C651.524 344.28 651.205 344.294 650.885 344.294 647.957 344.221 645.128 343.22 642.805 341.435 642.286 341.983 641.759 342.525 641.205 343.051 639.135 345.025 636.928 346.85 634.6 348.512 632.266 350.18 629.817 351.679 627.27 353 624.782 354.297 622.209 355.424 619.57 356.375 617.445 357.135 615.434 358.184 613.595 359.492 611.847 360.734 610.3 362.238 609.008 363.949 607.725 365.662 606.726 367.57 606.05 369.6 604.763 373.559 604.657 377.807 605.743 381.825 606.223 383.575 606.934 385.253 607.858 386.815 609.693 389.898 612.269 392.474 615.352 394.309 616.914 395.233 618.592 395.945 620.342 396.424 622.152 396.922 624.021 397.172 625.898 397.167 629.488 397.196 633.06 396.646 636.475 395.54 639.724 394.47 642.81 392.959 645.648 391.05 648.509 389.12 651.142 386.873 653.497 384.35 655.908 381.775 658.106 379.01 660.07 376.08 662.05 373.131 663.836 370.056 665.415 366.874 666.504 364.682 667.484 362.501 668.394 360.329 665.505 358.505 663.456 355.612 662.694 352.282Z" fill="#000000" fill-rule="nonzero" fill-opacity="1"/><path d="M670.963 334.744C672.599 331.046 673.775 327.161 674.463 323.176L668.583 322C668.031 325.131 667.164 328.198 665.994 331.155 656.428 325.688 653.776 333.725 642.312 335.513 642.312 335.513 648.175 343.113 654.893 339.156L656.859 348.905 666.743 347.805C664.858 355.905 674.043 358.679 674.043 358.679 672.229 347.04 679.505 342.359 670.963 334.744Z" fill="#000000" fill-rule="nonzero" fill-opacity="1"/></g></g></svg>