<svg width="97" height="96" xmlns="http://www.w3.org/2000/svg" xmlns:xlink="http://www.w3.org/1999/xlink" xml:space="preserve" overflow="hidden"><g transform="translate(-797 -312)"><g><g><g><g><path d="M850 351.94C853.218 349.501 856.854 347.671 860.73 346.54 862.73 342.932 864.17 339.041 865 335 859.069 335.549 853.501 338.099 849.21 342.23 848.097 343.36 847.093 344.592 846.21 345.91 847.477 347.988 848.545 350.181 849.4 352.46Z" fill="#000000" fill-rule="nonzero" fill-opacity="1"/><path d="M826.9 399.7C827.237 401.595 828.875 402.982 830.8 403L860.1 403C862.025 402.982 863.663 401.595 864 399.7L868.5 375 822.5 375Z" fill="#000000" fill-rule="nonzero" fill-opacity="1"/><path d="M868.5 363 859.72 363 859.89 362.87C867.89 356.59 870.1 346.87 870.1 346.87 870.1 346.87 859.27 347.28 851.25 353.56 849.601 354.857 848.114 356.348 846.82 358 847.96 359.578 848.964 361.251 849.82 363L847.55 363C845.708 359.326 843.095 356.093 839.89 353.52 831.89 347.24 821.05 346.83 821.05 346.83 821.05 346.83 823.23 356.59 831.25 362.83L831.42 362.96 822.6 362.96C820.391 362.96 818.6 364.751 818.6 366.96L818.6 370.96 872.6 370.96 872.6 367C872.51 364.79 870.711 363.035 868.5 363Z" fill="#000000" fill-rule="nonzero" fill-opacity="1"/><path d="M845.57 356.33C846.273 355.481 847.021 354.67 847.81 353.9 846.338 349.554 843.951 345.575 840.81 342.23 836.527 338.105 830.97 335.556 825.05 335 825.842 338.9 827.207 342.66 829.1 346.16 833.443 347.274 837.521 349.239 841.1 351.94 842.749 353.232 844.248 354.704 845.57 356.33Z" fill="#000000" fill-rule="nonzero" fill-opacity="1"/><path d="M845 344.12C845.747 343.068 846.562 342.065 847.44 341.12 846.571 337.97 845.25 334.962 843.52 332.19 839.05 325.45 833 325 833 325 833.506 328.747 834.394 332.433 835.65 336 838.095 337.229 840.327 338.843 842.26 340.78 843.262 341.817 844.179 342.934 845 344.12Z" fill="#000000" fill-rule="nonzero" fill-opacity="1"/><path d="M847.46 332.23C847.17 332.67 846.9 333.12 846.63 333.58 847.613 335.508 848.433 337.515 849.08 339.58 851.022 337.898 853.198 336.506 855.54 335.45 856.696 332.054 857.52 328.555 858 325 858 325 852 325.45 847.46 332.23Z" fill="#000000" fill-rule="nonzero" fill-opacity="1"/><path d="M845.21 331.13C845.31 331.28 845.39 331.44 845.49 331.6L845.79 331.13C846.799 329.595 848.013 328.205 849.4 327 848.723 323.838 847.556 320.801 845.94 318 844.078 320.814 842.693 323.915 841.84 327.18 843.127 328.347 844.26 329.675 845.21 331.13Z" fill="#000000" fill-rule="nonzero" fill-opacity="1"/></g></g></g></g></g></svg>